<svg width="174" height="32" viewBox="0 0 174 32" fill="none" xmlns="http://www.w3.org/2000/svg">
<g id="Frame">
<path id="Vector" d="M77.3477 12.6438H80.4201V21.3402H82.8264V12.632H85.9056V10.4629H77.3477V12.6438Z" fill="#262629"/>
<path id="Vector_2" d="M60.3869 10.4424H58.0084V10.7279C58.0084 12.9882 58.0084 15.2484 58.0084 17.5083C58.0084 18.1212 57.8405 18.6819 57.301 19.0534C57.0729 19.2127 56.8077 19.3132 56.5298 19.3455C56.2519 19.3778 55.9702 19.341 55.7105 19.2384C55.4509 19.1358 55.2217 18.9708 55.0441 18.7584C54.8664 18.5461 54.746 18.2933 54.6939 18.0233C54.652 17.7595 54.6237 17.4938 54.6092 17.2272H52.2711C52.1842 18.2993 52.421 19.2698 53.0955 20.1027C54.0224 21.2476 55.2836 21.6383 56.7254 21.5441C58.9818 21.397 60.3637 19.7392 60.3862 17.7334C60.4124 15.3744 60.3914 13.0147 60.3914 10.6558L60.3869 10.4424Z" fill="#262629"/>
<path id="Vector_3" d="M143.374 17.1015C145.368 16.0162 145.84 13.3665 144.332 11.6845C143.521 10.7795 142.465 10.4285 141.266 10.4248C139.857 10.4248 138.447 10.4248 137.037 10.4248C136.977 10.4248 136.917 10.4322 136.855 10.4359V21.311H139.253V17.6048C139.71 17.6048 140.138 17.6136 140.565 17.6048C140.636 17.5963 140.709 17.6109 140.771 17.6463C140.833 17.6818 140.882 17.7361 140.91 17.8012C141.555 18.9248 142.211 20.0425 142.859 21.166C142.883 21.2205 142.924 21.2661 142.976 21.2962C143.029 21.3262 143.089 21.3391 143.149 21.3331C143.741 21.325 144.333 21.3294 144.925 21.3294H145.651L143.193 17.2089L143.374 17.1015ZM141.486 15.3959C140.752 15.4518 140.01 15.4077 139.258 15.4077V12.6462C139.276 12.6322 139.288 12.6153 139.3 12.6153C140.039 12.6153 140.781 12.5822 141.516 12.633C142.271 12.6845 142.775 13.2761 142.779 14.006C142.785 14.7572 142.294 15.3348 141.489 15.3959H141.486Z" fill="#262629"/>
<path id="Vector_4" d="M113.251 14.6168H109.055V10.4375H106.672V21.3097H109.07V16.8412H113.261V21.3097H115.636V10.4389H113.251V14.6168Z" fill="#262629"/>
<path id="Vector_5" d="M99.3106 17.2318C98.9262 18.3075 98.1978 19.0352 97.0407 19.2523C95.8222 19.4811 94.7446 19.1691 93.9196 18.2287C93.1237 17.3222 92.9042 16.2472 93.1492 15.0957C93.3815 14.0045 93.9893 13.1569 95.0556 12.7022C96.7709 11.9715 98.562 12.6874 99.2859 14.3732C99.3003 14.4266 99.3343 14.473 99.3812 14.5035C99.4282 14.534 99.4849 14.5465 99.5407 14.5387C100.039 14.5314 100.538 14.5387 101.039 14.5387H101.746C101.742 14.4614 101.732 14.3845 101.718 14.3084C101.365 12.9545 100.642 11.8413 99.4372 11.0709C98.4171 10.4275 97.2152 10.1189 96.0049 10.1896C94.7946 10.2604 93.6385 10.7068 92.7033 11.4646C91.0682 12.8067 90.4619 14.5762 90.6912 16.6247C91.0517 19.8431 94.0185 22.1322 97.5526 21.4347C99.8127 20.988 101.15 19.526 101.727 17.3664C101.751 17.2752 101.76 17.1802 101.779 17.0772H99.3735C99.3488 17.1339 99.3293 17.1825 99.3106 17.2318Z" fill="#262629"/>
<path id="Vector_6" d="M127.391 10.5938C127.334 10.4562 127.259 10.4187 127.114 10.4202C126.507 10.4283 125.899 10.4319 125.291 10.4202C125.106 10.4158 125.024 10.4702 124.956 10.6409C123.826 13.4909 122.691 16.3387 121.55 19.1843L120.695 21.324C121.52 21.324 122.309 21.3284 123.093 21.3167C123.157 21.3025 123.213 21.2648 123.249 21.2114L125.314 15.6856C125.607 14.8983 125.9 14.1073 126.202 13.2942C126.507 14.1073 126.801 14.8997 127.101 15.6878L127.153 15.8298C127.324 16.2845 127.494 16.7378 127.665 17.194H127.661L128.464 19.3521C128.48 19.3774 128.493 19.4046 128.503 19.433C128.71 20.0084 128.925 20.5811 129.148 21.1511C129.175 21.2203 129.26 21.3159 129.32 21.3167C130.137 21.3277 130.953 21.324 131.793 21.324C131.764 21.2394 131.746 21.1769 131.718 21.1129C130.278 17.607 128.835 14.1007 127.391 10.5938Z" fill="#262629"/>
<path id="Vector_7" d="M169.156 19.1209V16.8841H172.978V14.7569H169.156V12.5988H173.558V10.4414H166.758V21.3136H173.563V19.1209H169.156Z" fill="#262629"/>
<path id="Vector_8" d="M156.212 10.1829C152.986 10.1829 150.367 12.7302 150.367 15.8728C150.367 19.0154 152.983 21.5635 156.212 21.5635C159.441 21.5635 162.057 19.0154 162.057 15.8728C162.058 15.4917 162.019 15.1116 161.941 14.7382H159.602V14.7448H156.394V16.8279H159.659C159.439 17.5573 158.984 18.197 158.362 18.6511C157.741 19.1052 156.986 19.3492 156.212 19.3465C154.235 19.3465 152.627 17.7881 152.627 15.8728C152.627 13.9575 154.235 12.3999 156.212 12.3999C156.684 12.3987 157.153 12.4891 157.59 12.6659C158.027 12.8426 158.425 13.1023 158.759 13.43H161.491C161.013 12.4547 160.263 11.6322 159.329 11.0572C158.395 10.4823 157.315 10.1784 156.212 10.1807V10.1829Z" fill="#262629"/>
<path id="Vector_9" d="M67.869 19.1436V16.9068H71.6871V14.7796H67.8698V12.6215H72.2716V10.4648H65.4688V21.3363H72.2731V19.1436H67.869Z" fill="#262629"/>
<path id="Vector_10" d="M25.6459 28.0809L6.89199 28.0897L0.186565 16.6848C0.0643319 16.4762 0 16.2397 0 15.999C0 15.7584 0.0643319 15.5219 0.186565 15.3133L8.78792 0.684813C8.91091 0.476536 9.08741 0.303563 9.29978 0.183225C9.51215 0.0628878 9.75296 -0.00062471 9.99816 -0.000976562H27.35C27.5499 -0.000707226 27.7461 0.0511005 27.9192 0.149238C28.0923 0.247375 28.2361 0.388408 28.3362 0.55824L29.41 2.38524H11.0263C10.8948 2.38524 10.7655 2.41925 10.6516 2.48383C10.5377 2.54841 10.4431 2.64129 10.3773 2.75314L2.93678 15.4089C2.83106 15.5896 2.77543 15.7943 2.77543 16.0027C2.77543 16.2111 2.83106 16.4158 2.93678 16.5965L8.28883 25.6991H27.0982L25.6961 28.0838L25.6459 28.0809Z" fill="#262629"/>
<path id="Vector_11" d="M37.0118 16.6856L28.4104 31.3141C28.2874 31.5223 28.1109 31.6952 27.8985 31.8155C27.6862 31.9359 27.4454 31.9994 27.2002 31.9998H9.972C9.73475 31.9996 9.5017 31.9384 9.29606 31.8222C9.09043 31.706 8.91938 31.5389 8.79997 31.3376L7.78906 29.6166H26.1571C26.2936 29.6168 26.4277 29.5818 26.5461 29.515C26.6645 29.4482 26.7629 29.3521 26.8315 29.2362L34.2646 16.5951C34.3703 16.4144 34.4259 16.2097 34.4259 16.0013C34.4259 15.7929 34.3703 15.5882 34.2646 15.4075L28.9088 6.29975H10.0867L11.4887 3.91504H30.3079L37.0118 15.32C37.1329 15.5279 37.1966 15.7632 37.1966 16.0028C37.1966 16.2423 37.1329 16.4777 37.0118 16.6856ZM19.4831 8.70364L19.4764 15.0713L22.5765 15.0749C22.593 15.0749 22.6092 15.0792 22.6235 15.0873C22.6377 15.0954 22.6496 15.1071 22.6578 15.1211C22.666 15.1351 22.6703 15.151 22.6702 15.1672C22.6702 15.1834 22.6658 15.1993 22.6575 15.2133L17.8757 23.3424C17.8651 23.3597 17.8491 23.3731 17.8301 23.3806C17.811 23.3882 17.79 23.3894 17.7702 23.3842C17.7504 23.3789 17.7328 23.3675 17.7202 23.3516C17.7076 23.3357 17.7006 23.3162 17.7003 23.296L17.7071 16.9292L14.6211 16.9255C14.6046 16.9256 14.5883 16.9214 14.5739 16.9134C14.5596 16.9053 14.5476 16.8937 14.5393 16.8796C14.531 16.8656 14.5267 16.8496 14.5267 16.8334C14.5267 16.8171 14.5311 16.8012 14.5395 16.7871L19.3077 8.65726C19.3183 8.63998 19.3343 8.62657 19.3534 8.61903C19.3724 8.61149 19.3934 8.61023 19.4132 8.61547C19.4331 8.62071 19.4506 8.63215 19.4632 8.64806C19.4758 8.66396 19.4828 8.68349 19.4831 8.70364Z" fill="url(#paint0_linear_186_668)"/>
</g>
<defs>
<linearGradient id="paint0_linear_186_668" x1="7.78906" y1="17.9563" x2="37.1984" y2="17.9563" gradientUnits="userSpaceOnUse">
<stop offset="0.07" stop-color="#FFB510"/>
<stop offset="1" stop-color="#F48210"/>
</linearGradient>
</defs>
</svg>
